<svg width="1000" height="1000" viewBox="0 0 1000 1000" fill="none" xmlns="http://www.w3.org/2000/svg">
<circle cx="500" cy="500" r="490" fill="black"/>
<g filter="url(#filter0_n_17_44)">
<path d="M544.67 123.466C545.849 124.626 546.326 131.04 546.335 132.957C546.359 138.566 545.042 145.307 544.868 150.942C543.945 180.738 543.082 210.234 541.169 239.926C540.809 245.518 542.976 260.457 535.602 261.772C428.352 260.705 336.36 334.85 305.199 432.64C276.192 523.671 309.483 634.458 399.524 679.388C405.728 682.484 413.754 686.746 420.648 686.693C422.659 686.211 420.518 673.871 420.372 671.267C413.826 554.352 472.434 414.577 589.257 367.894C724.679 313.78 860.782 413.144 848.934 554.25C842.439 631.613 791.315 703.743 732.612 753.06C708.364 773.43 680.664 789.402 652.667 804.351C652.122 805.13 652.313 805.72 652.688 806.508C653.719 808.673 669.059 815.675 672.242 816.909C686.154 822.301 701.22 824.851 715.692 828.438L634.315 952C609.59 944.246 586.592 933.171 564.785 919.49C532.104 898.988 503.675 872.412 481.33 841.461L453.911 839.527C300.792 823.157 182.378 710.378 156.417 563.247C120.952 362.249 263.545 161.993 469.602 127.115C489.761 123.702 512.888 121.418 533.308 122.13C535.444 122.205 543.706 122.521 544.67 123.469V123.466ZM659.544 493.094C634.27 495.76 611.361 517.722 598.288 537.453C571.819 577.404 557.924 628.505 564.828 676.158C565.638 681.746 564.905 687.763 571.838 686.064C581.132 683.784 599.781 673.715 608.409 668.603C650.679 643.55 714.633 579.543 705.126 527.214C701.067 504.872 683.172 490.602 659.543 493.094H659.544Z" fill="white"/>
</g>
<defs>
<filter id="filter0_n_17_44" x="151" y="122" width="698.656" height="830" filterUnits="userSpaceOnUse" color-interpolation-filters="sRGB">
<feFlood flood-opacity="0" result="BackgroundImageFix"/>
<feBlend mode="normal" in="SourceGraphic" in2="BackgroundImageFix" result="shape"/>
<feTurbulence type="fractalNoise" baseFrequency="inf inf" stitchTiles="stitch" numOctaves="3" result="noise" seed="425" />
<feColorMatrix in="noise" type="luminanceToAlpha" result="alphaNoise" />
<feComponentTransfer in="alphaNoise" result="coloredNoise1">
<feFuncA type="discrete" tableValues="1 1 1 1 1 1 1 1 1 1 1 1 1 1 1 1 1 1 1 1 1 1 1 1 1 1 1 1 1 1 1 1 1 1 1 1 1 1 1 1 1 1 1 1 1 1 1 1 1 1 1 0 0 0 0 0 0 0 0 0 0 0 0 0 0 0 0 0 0 0 0 0 0 0 0 0 0 0 0 0 0 0 0 0 0 0 0 0 0 0 0 0 0 0 0 0 0 0 0 0 "/>
</feComponentTransfer>
<feComposite operator="in" in2="shape" in="coloredNoise1" result="noise1Clipped" />
<feFlood flood-color="rgba(0, 0, 0, 0.25)" result="color1Flood" />
<feComposite operator="in" in2="noise1Clipped" in="color1Flood" result="color1" />
<feMerge result="effect1_noise_17_44">
<feMergeNode in="shape" />
<feMergeNode in="color1" />
</feMerge>
</filter>
</defs>
</svg>
